# xmcd
#
# Track frame offsets: 
#        150
#        11250
#        22903
#        35748
#        49233
#        61625
#        72673
#        84023
#        98118
#        110430
#
# Disc length: 1655 seconds
#
# Revision: 0
# Processed by: cddbd v1.5.2PL0 Copyright (c) Steve Scherf et al.
# Submitted via: ExactAudioCopy v1.3
#
DISCID=7206750a
DTITLE=George Strait - Strait Country
DYEAR=1981
DGENRE=Country
TTITLE0=Unwound
TTITLE1=Honky Tonk Down Stairs
TTITLE2=Blame It On Mexico
TTITLE3=If You're Thinking You Want A Stranger (There's One Coming Hom
TTITLE3=e)
TTITLE4=I Get Along With You
TTITLE5=Down And Out
TTITLE6=Friday Night Fever
TTITLE7=Every Time You Throw Dirt On Her (You Lose A Little Ground)
TTITLE8=She's Playing Hell Trying To Get Me To Heaven
TTITLE9=Her Goodbye Hit Me In The Heart
EXTD=
EXTT0=
EXTT1=
EXTT2=
EXTT3=
EXTT4=
EXTT5=
EXTT6=
EXTT7=
EXTT8=
EXTT9=
PLAYORDER=
